<!-- Exported by Character Map UWP -->
<svg height="100%" viewBox="128 96 768 852" width="100%" xmlns="http://www.w3.org/2000/svg" xmlns:xlink="http://www.w3.org/1999/xlink">
  <path d="M726,522L512,736L512,608L342,608L342,436L512,436L512,308ZM896,714C896,731.333 888.667,744 874,752L536,940C529.333,945.333 521.333,948 512,948C502.667,948 494.667,945.333 488,940L150,752C135.333,744 128,731.333 128,714L128,330C128,312.667 135.333,300 150,292L488,104C494.667,98.6667 502.667,96.0001 512,96C521.333,96.0001 529.333,98.6667 536,104L874,292C888.667,300 896,312.667 896,330ZM512,188L214,356L214,688L512,856L810,688L810,356Z" fill="#FFFFFF" fill-opacity="1">
  </path>
</svg>