<svg xmlns="http://www.w3.org/2000/svg" xmlns:xlink="http://www.w3.org/1999/xlink" width="500" zoomAndPan="magnify" viewBox="0 0 375 374.999991" height="500" preserveAspectRatio="xMidYMid meet" version="1.0"><defs><clipPath id="fe69886c79"><path d="M 92 66.167969 L 283 66.167969 L 283 293 L 92 293 Z M 92 66.167969 " clip-rule="nonzero"/></clipPath></defs><g clip-path="url(#fe69886c79)"><path fill="#ffffff" d="M 220.800781 127.53125 C 250.460938 140.445312 271.265625 170.003906 271.265625 204.355469 C 271.265625 235.449219 254.246094 263.554688 227.285156 278.078125 L 227.285156 262.21875 C 243.59375 249.792969 253.238281 230.46875 253.238281 209.976562 C 253.238281 184.320312 238.316406 162.28125 216.828125 151.460938 C 219.738281 146.445312 221.53125 140.703125 221.53125 134.496094 C 221.53125 132.109375 221.273438 129.78125 220.800781 127.53125 Z M 187.488281 157.597656 C 174.757812 157.597656 164.386719 147.230469 164.386719 134.496094 C 164.386719 121.757812 174.757812 111.394531 187.488281 111.394531 C 200.222656 111.394531 210.589844 121.757812 210.589844 134.496094 C 210.589844 147.230469 200.222656 157.597656 187.488281 157.597656 Z M 121.738281 209.976562 C 121.738281 230.46875 131.382812 249.792969 147.695312 262.21875 L 147.695312 278.070312 C 120.730469 263.554688 103.726562 235.449219 103.726562 204.355469 C 103.726562 170.003906 124.519531 140.445312 154.171875 127.535156 C 153.707031 129.785156 153.445312 132.109375 153.445312 134.496094 C 153.445312 140.703125 155.238281 146.445312 158.148438 151.460938 C 136.660156 162.28125 121.738281 184.316406 121.738281 209.976562 Z M 242.296875 209.976562 C 242.296875 227.859375 233.464844 244.671875 218.695312 254.957031 C 217.230469 255.976562 216.347656 257.652344 216.347656 259.441406 L 216.347656 286.734375 C 216.347656 288.5625 217.253906 290.273438 218.78125 291.28125 C 220.292969 292.289062 222.199219 292.457031 223.925781 291.78125 C 259.332031 277.019531 282.207031 242.699219 282.207031 204.355469 C 282.207031 161.371094 253.394531 125.042969 214.085938 113.511719 C 208.925781 106.992188 201.515625 102.40625 192.957031 101.007812 L 192.957031 71.625 C 192.957031 68.601562 190.507812 66.152344 187.488281 66.152344 C 184.472656 66.152344 182.019531 68.601562 182.019531 71.625 L 182.019531 101.007812 C 173.460938 102.40625 166.046875 106.992188 160.886719 113.515625 C 121.589844 125.046875 92.785156 161.371094 92.785156 204.355469 C 92.785156 242.699219 115.660156 277.011719 151.054688 291.78125 C 151.738281 292.058594 152.449219 292.203125 153.164062 292.203125 C 154.230469 292.203125 155.285156 291.890625 156.195312 291.28125 C 157.71875 290.273438 158.632812 288.5625 158.632812 286.734375 L 158.632812 259.441406 C 158.632812 257.652344 157.746094 255.976562 156.28125 254.957031 C 141.511719 244.671875 132.679688 227.859375 132.679688 209.976562 C 132.679688 187.707031 146.082031 168.582031 165.203125 160.015625 C 171.1875 165.25 178.925781 168.53125 187.488281 168.53125 C 196.050781 168.53125 203.789062 165.25 209.777344 160.015625 C 228.898438 168.578125 242.296875 187.707031 242.296875 209.976562 " fill-opacity="1" fill-rule="nonzero"/></g></svg>