<svg xmlns="http://www.w3.org/2000/svg" xmlns:xlink="http://www.w3.org/1999/xlink" width="500" zoomAndPan="magnify" viewBox="0 0 375 374.999991" height="500" preserveAspectRatio="xMidYMid meet" version="1.0"><defs><g/><clipPath id="5914af1ff1"><path d="M 113 64.371094 L 262 64.371094 L 262 241 L 113 241 Z M 113 64.371094 " clip-rule="nonzero"/></clipPath></defs><g clip-path="url(#5914af1ff1)"><path fill="#ffffff" d="M 213.5 112.285156 C 236.660156 122.367188 252.902344 145.445312 252.902344 172.269531 C 252.902344 196.546875 239.617188 218.488281 218.566406 229.828125 L 218.566406 217.449219 C 231.296875 207.746094 238.828125 192.65625 238.828125 176.65625 C 238.828125 156.625 227.175781 139.417969 210.398438 130.96875 C 212.671875 127.050781 214.070312 122.570312 214.070312 117.722656 C 214.070312 115.859375 213.867188 114.042969 213.5 112.285156 Z M 187.492188 135.757812 C 177.550781 135.757812 169.453125 127.667969 169.453125 117.722656 C 169.453125 107.777344 177.550781 99.6875 187.492188 99.6875 C 197.433594 99.6875 205.527344 107.777344 205.527344 117.722656 C 205.527344 127.667969 197.433594 135.757812 187.492188 135.757812 Z M 136.15625 176.65625 C 136.15625 192.65625 143.683594 207.746094 156.421875 217.449219 L 156.421875 229.824219 C 135.367188 218.488281 122.089844 196.546875 122.089844 172.269531 C 122.089844 145.445312 138.328125 122.367188 161.476562 112.289062 C 161.113281 114.042969 160.910156 115.859375 160.910156 117.722656 C 160.910156 122.570312 162.3125 127.050781 164.582031 130.96875 C 147.804688 139.417969 136.15625 156.621094 136.15625 176.65625 Z M 230.285156 176.65625 C 230.285156 190.617188 223.390625 203.746094 211.859375 211.777344 C 210.714844 212.570312 210.023438 213.882812 210.023438 215.277344 L 210.023438 236.585938 C 210.023438 238.015625 210.734375 239.351562 211.925781 240.140625 C 213.101562 240.925781 214.59375 241.054688 215.9375 240.527344 C 243.585938 229.003906 261.445312 202.207031 261.445312 172.269531 C 261.445312 138.707031 238.949219 110.339844 208.257812 101.339844 C 204.230469 96.246094 198.441406 92.667969 191.761719 91.578125 L 191.761719 68.632812 C 191.761719 66.273438 189.847656 64.359375 187.492188 64.359375 C 185.136719 64.359375 183.222656 66.273438 183.222656 68.632812 L 183.222656 91.578125 C 176.539062 92.667969 170.75 96.246094 166.722656 101.339844 C 136.039062 110.34375 113.546875 138.707031 113.546875 172.269531 C 113.546875 202.207031 131.410156 228.996094 159.042969 240.527344 C 159.578125 240.746094 160.132812 240.855469 160.691406 240.855469 C 161.523438 240.855469 162.347656 240.613281 163.058594 240.140625 C 164.246094 239.351562 164.960938 238.015625 164.960938 236.585938 L 164.960938 215.277344 C 164.960938 213.882812 164.269531 212.570312 163.125 211.777344 C 151.59375 203.746094 144.699219 190.617188 144.699219 176.65625 C 144.699219 159.269531 155.160156 144.335938 170.089844 137.648438 C 174.765625 141.734375 180.804688 144.296875 187.492188 144.296875 C 194.175781 144.296875 200.21875 141.734375 204.894531 137.648438 C 219.824219 144.335938 230.285156 159.269531 230.285156 176.65625 " fill-opacity="1" fill-rule="nonzero"/></g><g fill="#ffffff" fill-opacity="1"><g transform="translate(112.311176, 295.224737)"><g><path d="M 21.765625 -8.375 C 21.765625 -5.601562 20.816406 -3.515625 18.921875 -2.109375 C 17.035156 -0.703125 14.351562 0 10.875 0 L 1.140625 0 L 1.140625 -30.53125 L 10.34375 -30.53125 C 11.625 -30.53125 12.878906 -30.425781 14.109375 -30.21875 C 15.335938 -30.007812 16.441406 -29.613281 17.421875 -29.03125 C 18.398438 -28.457031 19.191406 -27.648438 19.796875 -26.609375 C 20.398438 -25.578125 20.703125 -24.234375 20.703125 -22.578125 C 20.703125 -21.035156 20.304688 -19.625 19.515625 -18.34375 C 18.734375 -17.0625 17.546875 -16.140625 15.953125 -15.578125 C 17.910156 -14.972656 19.367188 -14.125 20.328125 -13.03125 C 21.285156 -11.9375 21.765625 -10.382812 21.765625 -8.375 Z M 15.90625 -21.953125 C 15.90625 -22.835938 15.738281 -23.5625 15.40625 -24.125 C 15.070312 -24.6875 14.640625 -25.117188 14.109375 -25.421875 C 13.578125 -25.722656 12.984375 -25.921875 12.328125 -26.015625 C 11.671875 -26.109375 11.007812 -26.15625 10.34375 -26.15625 L 5.984375 -26.15625 L 5.984375 -17.734375 L 10.34375 -17.734375 C 11.007812 -17.734375 11.671875 -17.78125 12.328125 -17.875 C 12.984375 -17.96875 13.578125 -18.164062 14.109375 -18.46875 C 14.640625 -18.78125 15.070312 -19.210938 15.40625 -19.765625 C 15.738281 -20.328125 15.90625 -21.054688 15.90625 -21.953125 Z M 16.96875 -8.875 C 16.96875 -10.394531 16.429688 -11.519531 15.359375 -12.25 C 14.296875 -12.988281 12.800781 -13.359375 10.875 -13.359375 L 5.984375 -13.359375 L 5.984375 -4.359375 L 10.875 -4.359375 C 12.800781 -4.359375 14.296875 -4.726562 15.359375 -5.46875 C 16.429688 -6.207031 16.96875 -7.34375 16.96875 -8.875 Z M 16.96875 -8.875 "/></g></g></g><g fill="#ffffff" fill-opacity="1"><g transform="translate(138.471775, 295.224737)"><g><path d="M 22.28125 -26.15625 L 20.078125 -26.15625 L 13.3125 -12.453125 L 13.3125 -4.359375 L 18.203125 -4.359375 L 18.203125 0 L 3.609375 0 L 3.609375 -4.359375 L 8.46875 -4.359375 L 8.46875 -12.453125 L 1.734375 -26.15625 L -0.46875 -26.15625 L -0.46875 -30.53125 L 9.15625 -30.53125 L 9.15625 -26.15625 L 7.046875 -26.15625 L 10.921875 -17.203125 L 14.765625 -26.15625 L 12.65625 -26.15625 L 12.65625 -30.53125 L 22.28125 -30.53125 Z M 22.28125 -26.15625 "/></g></g></g><g fill="#ffffff" fill-opacity="1"><g transform="translate(164.632374, 295.224737)"><g><path d="M 21.765625 -19.390625 L 17.4375 -19.390625 L 17.4375 -26.15625 L 13.3125 -26.15625 L 13.3125 -4.359375 L 18.15625 -4.359375 L 18.15625 0 L 3.65625 0 L 3.65625 -4.359375 L 8.46875 -4.359375 L 8.46875 -26.15625 L 4.3125 -26.15625 L 4.3125 -19.390625 L 0 -19.390625 L 0 -30.53125 L 21.765625 -30.53125 Z M 21.765625 -19.390625 "/></g></g></g><g fill="#ffffff" fill-opacity="1"><g transform="translate(190.792974, 295.224737)"><g><path d="M 20.65625 0 L 1.140625 0 L 1.140625 -30.53125 L 20.65625 -30.53125 L 20.65625 -26.15625 L 5.984375 -26.15625 L 5.984375 -17.734375 L 17.4375 -17.734375 L 17.4375 -13.359375 L 5.984375 -13.359375 L 5.984375 -4.359375 L 20.65625 -4.359375 Z M 20.65625 0 "/></g></g></g><g fill="#ffffff" fill-opacity="1"><g transform="translate(216.953573, 295.224737)"><g><path d="M 20.65625 0 L 15.8125 0 L 15.8125 -20.65625 L 12.75 -9.6875 L 9.015625 -9.6875 L 5.984375 -20.65625 L 5.984375 0 L 1.140625 0 L 1.140625 -30.53125 L 6.90625 -30.53125 L 10.875 -16.734375 L 14.859375 -30.53125 L 20.65625 -30.53125 Z M 20.65625 0 "/></g></g></g><g fill="#ffffff" fill-opacity="1"><g transform="translate(243.114172, 295.224737)"><g><path d="M 21.53125 -8.28125 C 21.53125 -6.9375 21.253906 -5.722656 20.703125 -4.640625 C 20.160156 -3.554688 19.429688 -2.628906 18.515625 -1.859375 C 17.609375 -1.097656 16.554688 -0.507812 15.359375 -0.09375 C 14.171875 0.320312 12.921875 0.53125 11.609375 0.53125 C 10.128906 0.53125 8.75 0.332031 7.46875 -0.0625 C 6.195312 -0.46875 5.070312 -1.078125 4.09375 -1.890625 C 3.125 -2.703125 2.332031 -3.75 1.71875 -5.03125 C 1.113281 -6.3125 0.75 -7.832031 0.625 -9.59375 L 5.171875 -10.34375 C 5.328125 -8.332031 5.984375 -6.742188 7.140625 -5.578125 C 8.296875 -4.421875 9.785156 -3.84375 11.609375 -3.84375 C 13.140625 -3.84375 14.367188 -4.242188 15.296875 -5.046875 C 16.222656 -5.859375 16.6875 -6.9375 16.6875 -8.28125 C 16.6875 -10.101562 16.09375 -11.40625 14.90625 -12.1875 C 13.71875 -12.96875 11.644531 -13.359375 8.6875 -13.359375 L 8.6875 -17.734375 C 9.726562 -17.734375 10.695312 -17.832031 11.59375 -18.03125 C 12.488281 -18.238281 13.269531 -18.546875 13.9375 -18.953125 C 14.613281 -19.359375 15.140625 -19.84375 15.515625 -20.40625 C 15.898438 -20.976562 16.09375 -21.648438 16.09375 -22.421875 C 16.09375 -23.691406 15.710938 -24.722656 14.953125 -25.515625 C 14.191406 -26.304688 13.078125 -26.703125 11.609375 -26.703125 C 9.691406 -26.703125 8.21875 -26.179688 7.1875 -25.140625 C 6.164062 -24.109375 5.65625 -22.453125 5.65625 -20.171875 L 1.046875 -20.171875 C 1.046875 -21.960938 1.300781 -23.535156 1.8125 -24.890625 C 2.332031 -26.253906 3.050781 -27.390625 3.96875 -28.296875 C 4.894531 -29.210938 6.003906 -29.898438 7.296875 -30.359375 C 8.597656 -30.816406 10.035156 -31.046875 11.609375 -31.046875 C 12.921875 -31.046875 14.140625 -30.847656 15.265625 -30.453125 C 16.398438 -30.054688 17.390625 -29.484375 18.234375 -28.734375 C 19.085938 -27.984375 19.75 -27.078125 20.21875 -26.015625 C 20.695312 -24.953125 20.9375 -23.753906 20.9375 -22.421875 C 20.9375 -21.554688 20.800781 -20.742188 20.53125 -19.984375 C 20.257812 -19.222656 19.867188 -18.546875 19.359375 -17.953125 C 18.859375 -17.359375 18.226562 -16.875 17.46875 -16.5 C 16.707031 -16.132812 15.867188 -15.921875 14.953125 -15.859375 C 16.015625 -15.765625 16.953125 -15.492188 17.765625 -15.046875 C 18.578125 -14.597656 19.257812 -14.03125 19.8125 -13.34375 C 20.375 -12.65625 20.800781 -11.875 21.09375 -11 C 21.382812 -10.125 21.53125 -9.21875 21.53125 -8.28125 Z M 21.53125 -8.28125 "/></g></g></g></svg>