<svg xmlns="http://www.w3.org/2000/svg" xmlns:xlink="http://www.w3.org/1999/xlink" width="500" zoomAndPan="magnify" viewBox="0 0 375 374.999991" height="500" preserveAspectRatio="xMidYMid meet" version="1.0"><defs><g/><clipPath id="10df751b0d"><path d="M 37 92.757812 L 186 92.757812 L 186 270 L 37 270 Z M 37 92.757812 " clip-rule="nonzero"/></clipPath></defs><g clip-path="url(#10df751b0d)"><path fill="#ffffff" d="M 137.320312 140.671875 C 160.480469 150.753906 176.726562 173.835938 176.726562 200.660156 C 176.726562 224.9375 163.4375 246.878906 142.386719 258.222656 L 142.386719 245.839844 C 155.117188 236.136719 162.648438 221.050781 162.648438 205.046875 C 162.648438 185.015625 150.996094 167.804688 134.21875 159.355469 C 136.492188 155.441406 137.890625 150.957031 137.890625 146.113281 C 137.890625 144.246094 137.6875 142.429688 137.320312 140.671875 Z M 111.3125 164.148438 C 101.367188 164.148438 93.273438 156.054688 93.273438 146.113281 C 93.273438 136.164062 101.367188 128.074219 111.3125 128.074219 C 121.253906 128.074219 129.347656 136.164062 129.347656 146.113281 C 129.347656 156.054688 121.253906 164.148438 111.3125 164.148438 Z M 59.972656 205.046875 C 59.972656 221.050781 67.503906 236.136719 80.238281 245.839844 L 80.238281 258.21875 C 59.183594 246.878906 45.90625 224.9375 45.90625 200.660156 C 45.90625 173.835938 62.144531 150.753906 85.296875 140.675781 C 84.933594 142.433594 84.730469 144.246094 84.730469 146.113281 C 84.730469 150.957031 86.128906 155.441406 88.402344 159.355469 C 71.625 167.804688 59.972656 185.011719 59.972656 205.046875 Z M 154.105469 205.046875 C 154.105469 219.007812 147.210938 232.136719 135.679688 240.167969 C 134.535156 240.964844 133.84375 242.273438 133.84375 243.671875 L 133.84375 264.980469 C 133.84375 266.410156 134.554688 267.742188 135.746094 268.53125 C 136.921875 269.316406 138.414062 269.449219 139.757812 268.921875 C 167.40625 257.394531 185.269531 230.597656 185.269531 200.660156 C 185.269531 167.097656 162.773438 138.730469 132.078125 129.726562 C 128.050781 124.636719 122.261719 121.054688 115.582031 119.964844 L 115.582031 97.019531 C 115.582031 94.660156 113.667969 92.746094 111.3125 92.746094 C 108.953125 92.746094 107.042969 94.660156 107.042969 97.019531 L 107.042969 119.964844 C 100.359375 121.054688 94.570312 124.636719 90.539062 129.730469 C 59.855469 138.730469 37.363281 167.097656 37.363281 200.660156 C 37.363281 230.597656 55.226562 257.390625 82.863281 268.921875 C 83.394531 269.136719 83.949219 269.25 84.507812 269.25 C 85.34375 269.25 86.167969 269.007812 86.875 268.53125 C 88.066406 267.742188 88.777344 266.410156 88.777344 264.980469 L 88.777344 243.671875 C 88.777344 242.273438 88.089844 240.964844 86.945312 240.167969 C 75.410156 232.136719 68.515625 219.007812 68.515625 205.046875 C 68.515625 187.660156 78.980469 172.726562 93.910156 166.035156 C 98.582031 170.125 104.625 172.6875 111.3125 172.6875 C 117.996094 172.6875 124.039062 170.125 128.714844 166.035156 C 143.644531 172.722656 154.105469 187.660156 154.105469 205.046875 " fill-opacity="1" fill-rule="nonzero"/></g><g fill="#ffffff" fill-opacity="1"><g transform="translate(198.713244, 200.483586)"><g><path d="M 21.765625 -8.375 C 21.765625 -5.601562 20.816406 -3.515625 18.921875 -2.109375 C 17.035156 -0.703125 14.351562 0 10.875 0 L 1.140625 0 L 1.140625 -30.53125 L 10.34375 -30.53125 C 11.625 -30.53125 12.878906 -30.425781 14.109375 -30.21875 C 15.335938 -30.007812 16.441406 -29.613281 17.421875 -29.03125 C 18.398438 -28.457031 19.191406 -27.648438 19.796875 -26.609375 C 20.398438 -25.578125 20.703125 -24.234375 20.703125 -22.578125 C 20.703125 -21.035156 20.304688 -19.625 19.515625 -18.34375 C 18.734375 -17.0625 17.546875 -16.140625 15.953125 -15.578125 C 17.910156 -14.972656 19.367188 -14.125 20.328125 -13.03125 C 21.285156 -11.9375 21.765625 -10.382812 21.765625 -8.375 Z M 15.90625 -21.953125 C 15.90625 -22.835938 15.738281 -23.5625 15.40625 -24.125 C 15.070312 -24.6875 14.640625 -25.117188 14.109375 -25.421875 C 13.578125 -25.722656 12.984375 -25.921875 12.328125 -26.015625 C 11.671875 -26.109375 11.007812 -26.15625 10.34375 -26.15625 L 5.984375 -26.15625 L 5.984375 -17.734375 L 10.34375 -17.734375 C 11.007812 -17.734375 11.671875 -17.78125 12.328125 -17.875 C 12.984375 -17.96875 13.578125 -18.164062 14.109375 -18.46875 C 14.640625 -18.78125 15.070312 -19.210938 15.40625 -19.765625 C 15.738281 -20.328125 15.90625 -21.054688 15.90625 -21.953125 Z M 16.96875 -8.875 C 16.96875 -10.394531 16.429688 -11.519531 15.359375 -12.25 C 14.296875 -12.988281 12.800781 -13.359375 10.875 -13.359375 L 5.984375 -13.359375 L 5.984375 -4.359375 L 10.875 -4.359375 C 12.800781 -4.359375 14.296875 -4.726562 15.359375 -5.46875 C 16.429688 -6.207031 16.96875 -7.34375 16.96875 -8.875 Z M 16.96875 -8.875 "/></g></g></g><g fill="#ffffff" fill-opacity="1"><g transform="translate(224.873843, 200.483586)"><g><path d="M 22.28125 -26.15625 L 20.078125 -26.15625 L 13.3125 -12.453125 L 13.3125 -4.359375 L 18.203125 -4.359375 L 18.203125 0 L 3.609375 0 L 3.609375 -4.359375 L 8.46875 -4.359375 L 8.46875 -12.453125 L 1.734375 -26.15625 L -0.46875 -26.15625 L -0.46875 -30.53125 L 9.15625 -30.53125 L 9.15625 -26.15625 L 7.046875 -26.15625 L 10.921875 -17.203125 L 14.765625 -26.15625 L 12.65625 -26.15625 L 12.65625 -30.53125 L 22.28125 -30.53125 Z M 22.28125 -26.15625 "/></g></g></g><g fill="#ffffff" fill-opacity="1"><g transform="translate(251.034442, 200.483586)"><g><path d="M 21.765625 -19.390625 L 17.4375 -19.390625 L 17.4375 -26.15625 L 13.3125 -26.15625 L 13.3125 -4.359375 L 18.15625 -4.359375 L 18.15625 0 L 3.65625 0 L 3.65625 -4.359375 L 8.46875 -4.359375 L 8.46875 -26.15625 L 4.3125 -26.15625 L 4.3125 -19.390625 L 0 -19.390625 L 0 -30.53125 L 21.765625 -30.53125 Z M 21.765625 -19.390625 "/></g></g></g><g fill="#ffffff" fill-opacity="1"><g transform="translate(277.195042, 200.483586)"><g><path d="M 20.65625 0 L 1.140625 0 L 1.140625 -30.53125 L 20.65625 -30.53125 L 20.65625 -26.15625 L 5.984375 -26.15625 L 5.984375 -17.734375 L 17.4375 -17.734375 L 17.4375 -13.359375 L 5.984375 -13.359375 L 5.984375 -4.359375 L 20.65625 -4.359375 Z M 20.65625 0 "/></g></g></g><g fill="#ffffff" fill-opacity="1"><g transform="translate(303.355641, 200.483586)"><g><path d="M 20.65625 0 L 15.8125 0 L 15.8125 -20.65625 L 12.75 -9.6875 L 9.015625 -9.6875 L 5.984375 -20.65625 L 5.984375 0 L 1.140625 0 L 1.140625 -30.53125 L 6.90625 -30.53125 L 10.875 -16.734375 L 14.859375 -30.53125 L 20.65625 -30.53125 Z M 20.65625 0 "/></g></g></g><g fill="#ffffff" fill-opacity="1"><g transform="translate(329.51624, 200.483586)"><g><path d="M 21.53125 -8.28125 C 21.53125 -6.9375 21.253906 -5.722656 20.703125 -4.640625 C 20.160156 -3.554688 19.429688 -2.628906 18.515625 -1.859375 C 17.609375 -1.097656 16.554688 -0.507812 15.359375 -0.09375 C 14.171875 0.320312 12.921875 0.53125 11.609375 0.53125 C 10.128906 0.53125 8.75 0.332031 7.46875 -0.0625 C 6.195312 -0.46875 5.070312 -1.078125 4.09375 -1.890625 C 3.125 -2.703125 2.332031 -3.75 1.71875 -5.03125 C 1.113281 -6.3125 0.75 -7.832031 0.625 -9.59375 L 5.171875 -10.34375 C 5.328125 -8.332031 5.984375 -6.742188 7.140625 -5.578125 C 8.296875 -4.421875 9.785156 -3.84375 11.609375 -3.84375 C 13.140625 -3.84375 14.367188 -4.242188 15.296875 -5.046875 C 16.222656 -5.859375 16.6875 -6.9375 16.6875 -8.28125 C 16.6875 -10.101562 16.09375 -11.40625 14.90625 -12.1875 C 13.71875 -12.96875 11.644531 -13.359375 8.6875 -13.359375 L 8.6875 -17.734375 C 9.726562 -17.734375 10.695312 -17.832031 11.59375 -18.03125 C 12.488281 -18.238281 13.269531 -18.546875 13.9375 -18.953125 C 14.613281 -19.359375 15.140625 -19.84375 15.515625 -20.40625 C 15.898438 -20.976562 16.09375 -21.648438 16.09375 -22.421875 C 16.09375 -23.691406 15.710938 -24.722656 14.953125 -25.515625 C 14.191406 -26.304688 13.078125 -26.703125 11.609375 -26.703125 C 9.691406 -26.703125 8.21875 -26.179688 7.1875 -25.140625 C 6.164062 -24.109375 5.65625 -22.453125 5.65625 -20.171875 L 1.046875 -20.171875 C 1.046875 -21.960938 1.300781 -23.535156 1.8125 -24.890625 C 2.332031 -26.253906 3.050781 -27.390625 3.96875 -28.296875 C 4.894531 -29.210938 6.003906 -29.898438 7.296875 -30.359375 C 8.597656 -30.816406 10.035156 -31.046875 11.609375 -31.046875 C 12.921875 -31.046875 14.140625 -30.847656 15.265625 -30.453125 C 16.398438 -30.054688 17.390625 -29.484375 18.234375 -28.734375 C 19.085938 -27.984375 19.75 -27.078125 20.21875 -26.015625 C 20.695312 -24.953125 20.9375 -23.753906 20.9375 -22.421875 C 20.9375 -21.554688 20.800781 -20.742188 20.53125 -19.984375 C 20.257812 -19.222656 19.867188 -18.546875 19.359375 -17.953125 C 18.859375 -17.359375 18.226562 -16.875 17.46875 -16.5 C 16.707031 -16.132812 15.867188 -15.921875 14.953125 -15.859375 C 16.015625 -15.765625 16.953125 -15.492188 17.765625 -15.046875 C 18.578125 -14.597656 19.257812 -14.03125 19.8125 -13.34375 C 20.375 -12.65625 20.800781 -11.875 21.09375 -11 C 21.382812 -10.125 21.53125 -9.21875 21.53125 -8.28125 Z M 21.53125 -8.28125 "/></g></g></g></svg>