<svg xmlns="http://www.w3.org/2000/svg" xmlns:xlink="http://www.w3.org/1999/xlink" width="500" zoomAndPan="magnify" viewBox="0 0 375 374.999991" height="500" preserveAspectRatio="xMidYMid meet" version="1.0"><defs><g/><clipPath id="20f196c8f3"><path d="M 139 107.152344 L 236 107.152344 L 236 223 L 139 223 Z M 139 107.152344 " clip-rule="nonzero"/></clipPath></defs><g clip-path="url(#20f196c8f3)"><path fill="#100f0d" d="M 204.277344 138.382812 C 219.355469 144.953125 229.933594 159.996094 229.933594 177.480469 C 229.933594 193.304688 221.28125 207.609375 207.574219 215 L 207.574219 206.929688 C 215.863281 200.605469 220.769531 190.769531 220.769531 180.339844 C 220.769531 167.285156 213.183594 156.066406 202.257812 150.558594 C 203.734375 148.007812 204.648438 145.085938 204.648438 141.929688 C 204.648438 140.710938 204.515625 139.527344 204.277344 138.382812 Z M 187.339844 153.683594 C 180.867188 153.683594 175.59375 148.410156 175.59375 141.929688 C 175.59375 135.445312 180.867188 130.171875 187.339844 130.171875 C 193.8125 130.171875 199.085938 135.445312 199.085938 141.929688 C 199.085938 148.410156 193.8125 153.683594 187.339844 153.683594 Z M 153.910156 180.339844 C 153.910156 190.769531 158.8125 200.605469 167.109375 206.929688 L 167.109375 214.996094 C 153.398438 207.609375 144.753906 193.304688 144.753906 177.480469 C 144.753906 159.996094 155.324219 144.953125 170.402344 138.382812 C 170.164062 139.527344 170.03125 140.710938 170.03125 141.929688 C 170.03125 145.085938 170.945312 148.007812 172.421875 150.558594 C 161.496094 156.066406 153.910156 167.28125 153.910156 180.339844 Z M 215.207031 180.339844 C 215.207031 189.441406 210.714844 198 203.207031 203.230469 C 202.460938 203.75 202.011719 204.605469 202.011719 205.515625 L 202.011719 219.40625 C 202.011719 220.335938 202.472656 221.207031 203.25 221.71875 C 204.015625 222.230469 204.988281 222.316406 205.863281 221.972656 C 223.867188 214.460938 235.496094 196.996094 235.496094 177.480469 C 235.496094 155.605469 220.847656 137.117188 200.863281 131.246094 C 198.238281 127.929688 194.472656 125.597656 190.121094 124.882812 L 190.121094 109.929688 C 190.121094 108.390625 188.875 107.144531 187.339844 107.144531 C 185.804688 107.144531 184.558594 108.390625 184.558594 109.929688 L 184.558594 124.882812 C 180.207031 125.597656 176.4375 127.929688 173.816406 131.25 C 153.835938 137.117188 139.191406 155.605469 139.191406 177.480469 C 139.191406 196.996094 150.820312 214.457031 168.816406 221.972656 C 169.164062 222.113281 169.523438 222.1875 169.886719 222.1875 C 170.429688 222.1875 170.96875 222.027344 171.429688 221.71875 C 172.203125 221.207031 172.667969 220.335938 172.667969 219.40625 L 172.667969 205.515625 C 172.667969 204.605469 172.21875 203.75 171.472656 203.230469 C 163.964844 198 159.472656 189.441406 159.472656 180.339844 C 159.472656 169.007812 166.289062 159.273438 176.007812 154.914062 C 179.050781 157.578125 182.988281 159.25 187.339844 159.25 C 191.691406 159.25 195.628906 157.578125 198.671875 154.914062 C 208.394531 159.273438 215.207031 169.007812 215.207031 180.339844 " fill-opacity="1" fill-rule="nonzero"/></g><g fill="#000000" fill-opacity="1"><g transform="translate(138.435157, 257.79632)"><g><path d="M 14.203125 -5.46875 C 14.203125 -3.65625 13.582031 -2.289062 12.34375 -1.375 C 11.113281 -0.457031 9.363281 0 7.09375 0 L 0.75 0 L 0.75 -19.921875 L 6.75 -19.921875 C 7.582031 -19.921875 8.398438 -19.851562 9.203125 -19.71875 C 10.003906 -19.582031 10.722656 -19.320312 11.359375 -18.9375 C 11.992188 -18.5625 12.507812 -18.035156 12.90625 -17.359375 C 13.3125 -16.679688 13.515625 -15.804688 13.515625 -14.734375 C 13.515625 -13.722656 13.253906 -12.800781 12.734375 -11.96875 C 12.222656 -11.132812 11.445312 -10.535156 10.40625 -10.171875 C 11.675781 -9.773438 12.625 -9.21875 13.25 -8.5 C 13.882812 -7.789062 14.203125 -6.78125 14.203125 -5.46875 Z M 10.375 -14.3125 C 10.375 -14.894531 10.265625 -15.367188 10.046875 -15.734375 C 9.828125 -16.109375 9.546875 -16.394531 9.203125 -16.59375 C 8.859375 -16.789062 8.472656 -16.914062 8.046875 -16.96875 C 7.617188 -17.03125 7.1875 -17.0625 6.75 -17.0625 L 3.90625 -17.0625 L 3.90625 -11.578125 L 6.75 -11.578125 C 7.1875 -11.578125 7.617188 -11.601562 8.046875 -11.65625 C 8.472656 -11.71875 8.859375 -11.847656 9.203125 -12.046875 C 9.546875 -12.242188 9.828125 -12.523438 10.046875 -12.890625 C 10.265625 -13.265625 10.375 -13.738281 10.375 -14.3125 Z M 11.0625 -5.78125 C 11.0625 -6.78125 10.710938 -7.519531 10.015625 -8 C 9.328125 -8.476562 8.351562 -8.71875 7.09375 -8.71875 L 3.90625 -8.71875 L 3.90625 -2.84375 L 7.09375 -2.84375 C 8.351562 -2.84375 9.328125 -3.082031 10.015625 -3.5625 C 10.710938 -4.050781 11.0625 -4.789062 11.0625 -5.78125 Z M 11.0625 -5.78125 "/></g></g></g><g fill="#000000" fill-opacity="1"><g transform="translate(155.506388, 257.79632)"><g><path d="M 14.53125 -17.0625 L 13.09375 -17.0625 L 8.6875 -8.125 L 8.6875 -2.84375 L 11.875 -2.84375 L 11.875 0 L 2.34375 0 L 2.34375 -2.84375 L 5.53125 -2.84375 L 5.53125 -8.125 L 1.125 -17.0625 L -0.3125 -17.0625 L -0.3125 -19.921875 L 5.96875 -19.921875 L 5.96875 -17.0625 L 4.59375 -17.0625 L 7.125 -11.21875 L 9.640625 -17.0625 L 8.265625 -17.0625 L 8.265625 -19.921875 L 14.53125 -19.921875 Z M 14.53125 -17.0625 "/></g></g></g><g fill="#000000" fill-opacity="1"><g transform="translate(172.57762, 257.79632)"><g><path d="M 14.203125 -12.65625 L 11.375 -12.65625 L 11.375 -17.0625 L 8.6875 -17.0625 L 8.6875 -2.84375 L 11.84375 -2.84375 L 11.84375 0 L 2.375 0 L 2.375 -2.84375 L 5.53125 -2.84375 L 5.53125 -17.0625 L 2.8125 -17.0625 L 2.8125 -12.65625 L 0 -12.65625 L 0 -19.921875 L 14.203125 -19.921875 Z M 14.203125 -12.65625 "/></g></g></g><g fill="#000000" fill-opacity="1"><g transform="translate(189.648852, 257.79632)"><g><path d="M 13.484375 0 L 0.75 0 L 0.75 -19.921875 L 13.484375 -19.921875 L 13.484375 -17.0625 L 3.90625 -17.0625 L 3.90625 -11.578125 L 11.375 -11.578125 L 11.375 -8.71875 L 3.90625 -8.71875 L 3.90625 -2.84375 L 13.484375 -2.84375 Z M 13.484375 0 "/></g></g></g><g fill="#000000" fill-opacity="1"><g transform="translate(206.720084, 257.79632)"><g><path d="M 13.484375 0 L 10.3125 0 L 10.3125 -13.484375 L 8.3125 -6.3125 L 5.875 -6.3125 L 3.90625 -13.484375 L 3.90625 0 L 0.75 0 L 0.75 -19.921875 L 4.5 -19.921875 L 7.09375 -10.921875 L 9.6875 -19.921875 L 13.484375 -19.921875 Z M 13.484375 0 "/></g></g></g><g fill="#000000" fill-opacity="1"><g transform="translate(223.791315, 257.79632)"><g><path d="M 14.046875 -5.40625 C 14.046875 -4.53125 13.863281 -3.738281 13.5 -3.03125 C 13.144531 -2.320312 12.671875 -1.71875 12.078125 -1.21875 C 11.484375 -0.71875 10.796875 -0.332031 10.015625 -0.0625 C 9.242188 0.207031 8.429688 0.34375 7.578125 0.34375 C 6.609375 0.34375 5.707031 0.210938 4.875 -0.046875 C 4.050781 -0.304688 3.316406 -0.703125 2.671875 -1.234375 C 2.035156 -1.765625 1.519531 -2.445312 1.125 -3.28125 C 0.726562 -4.113281 0.488281 -5.109375 0.40625 -6.265625 L 3.375 -6.75 C 3.476562 -5.4375 3.90625 -4.398438 4.65625 -3.640625 C 5.40625 -2.878906 6.378906 -2.5 7.578125 -2.5 C 8.566406 -2.5 9.363281 -2.765625 9.96875 -3.296875 C 10.582031 -3.828125 10.890625 -4.53125 10.890625 -5.40625 C 10.890625 -6.59375 10.5 -7.441406 9.71875 -7.953125 C 8.945312 -8.460938 7.59375 -8.71875 5.65625 -8.71875 L 5.65625 -11.578125 C 6.34375 -11.578125 6.976562 -11.640625 7.5625 -11.765625 C 8.144531 -11.898438 8.65625 -12.097656 9.09375 -12.359375 C 9.53125 -12.628906 9.875 -12.945312 10.125 -13.3125 C 10.375 -13.6875 10.5 -14.125 10.5 -14.625 C 10.5 -15.457031 10.25 -16.128906 9.75 -16.640625 C 9.25 -17.160156 8.523438 -17.421875 7.578125 -17.421875 C 6.316406 -17.421875 5.351562 -17.082031 4.6875 -16.40625 C 4.019531 -15.726562 3.6875 -14.644531 3.6875 -13.15625 L 0.6875 -13.15625 C 0.6875 -14.332031 0.851562 -15.363281 1.1875 -16.25 C 1.519531 -17.132812 1.988281 -17.875 2.59375 -18.46875 C 3.195312 -19.0625 3.921875 -19.507812 4.765625 -19.8125 C 5.609375 -20.113281 6.546875 -20.265625 7.578125 -20.265625 C 8.429688 -20.265625 9.222656 -20.132812 9.953125 -19.875 C 10.691406 -19.613281 11.335938 -19.238281 11.890625 -18.75 C 12.453125 -18.257812 12.882812 -17.664062 13.1875 -16.96875 C 13.5 -16.28125 13.65625 -15.5 13.65625 -14.625 C 13.65625 -14.0625 13.566406 -13.53125 13.390625 -13.03125 C 13.210938 -12.539062 12.957031 -12.097656 12.625 -11.703125 C 12.300781 -11.316406 11.890625 -11.003906 11.390625 -10.765625 C 10.898438 -10.523438 10.351562 -10.382812 9.75 -10.34375 C 10.445312 -10.289062 11.054688 -10.113281 11.578125 -9.8125 C 12.109375 -9.519531 12.554688 -9.148438 12.921875 -8.703125 C 13.296875 -8.253906 13.578125 -7.742188 13.765625 -7.171875 C 13.953125 -6.597656 14.046875 -6.007812 14.046875 -5.40625 Z M 14.046875 -5.40625 "/></g></g></g></svg>