<?xml version="1.0" encoding="UTF-8"?>
<!-- Created with Inkscape (http://www.inkscape.org/) -->
<svg width="30.992" height="30.33" version="1.1" viewBox="0 0 8.2 8.0247" xmlns="http://www.w3.org/2000/svg">
 <g transform="translate(-13.809 -19.115)">
  <path class="cls-19" d="m22.009 22.698a2.1511 2.1511 0 0 0-2.0717-2.1484 2.1511 2.1511 0 0 0-4.0561 0 2.1484 2.1484 0 0 0-1.2409 3.8444 2.1167 2.1167 0 0 0-0.0847 0.59796 2.1511 2.1511 0 0 0 3.3655 1.7727 2.1167 2.1167 0 0 0 1.1933 0.36248 2.1484 2.1484 0 0 0 2.069-2.7358 2.1458 2.1458 0 0 0 0.8255-1.6933m-2.3812-1.4314a1.7198 1.7198 0 0 1-1.4632 1.696 1.7568 1.7568 0 0 1-0.0238-0.26458 1.7171 1.7171 0 0 1 1.4658-1.696 1.7013 1.7013 0 0 1 0.0212 0.26458m-1.7092 4.9398a1.7145 1.7145 0 0 1-0.0159-2.4474 1.7145 1.7145 0 0 1 0.0159 2.4474m-1.7039-5.2044a1.7171 1.7171 0 0 1 1.4658 1.696 1.7568 1.7568 0 0 1-0.0238 0.26458 1.7092 1.7092 0 0 1-1.442-1.9606m1.2806 2.4659a1.7171 1.7171 0 0 1-1.5346 0.94721 1.688 1.688 0 0 1-0.79375-0.19315 1.7198 1.7198 0 0 1 1.5346-0.94985 1.6801 1.6801 0 0 1 0.79375 0.19579m0.82285-0.01323a1.7145 1.7145 0 0 1 2.3363 0.76464 1.7145 1.7145 0 0 1-2.3363-0.76464m-0.40746-3.9079a1.7171 1.7171 0 0 1 1.5875 1.0345 2.1537 2.1537 0 0 0-1.5875 1.2065 2.159 2.159 0 0 0-1.5743-1.2065 1.7171 1.7171 0 0 1 1.5743-1.0345m-3.6671 3.1512a1.7198 1.7198 0 0 1 1.5346-1.7066 1.8732 1.8732 0 0 0-0.0185 0.26458 2.1378 2.1378 0 0 0 0.70379 1.5875 2.1643 2.1643 0 0 0-1.651 1.1165 1.7119 1.7119 0 0 1-0.56885-1.2726m0.74612 2.2939a1.7383 1.7383 0 0 1 0.037-0.35719 2.1325 2.1325 0 0 0 0.93397 0.21431 2.1537 2.1537 0 0 0 1.0398-0.26458 2.1405 2.1405 0 0 0 0.5715 1.8918 1.7145 1.7145 0 0 1-2.5823-1.4817m5.842-0.01588a1.7198 1.7198 0 0 1-1.7171 1.7171 1.6933 1.6933 0 0 1-0.84667-0.2249 2.1431 2.1431 0 0 0 0.59002-1.4764 2.1008 2.1008 0 0 0-0.0397-0.41275 2.1352 2.1352 0 0 0 1.0398 0.26458 2.1167 2.1167 0 0 0 0.93927-0.21696 1.6484 1.6484 0 0 1 0.0344 0.34396m-1.4605-2.1352a2.1405 2.1405 0 0 0 0.69057-1.5875 2.3257 2.3257 0 0 0-0.0185-0.26458 1.7145 1.7145 0 0 1 0.96837 2.9766 2.159 2.159 0 0 0-1.6404-1.1271" fill="#fff" stroke-width=".26458"/>
 </g>
</svg>
